<?xml version="1.0" encoding="utf-8"?>
<svg version="1.1" xmlns:xlink="http://www.w3.org/1999/xlink" width="122px" height="26px" xmlns="http://www.w3.org/2000/svg">
  <g transform="matrix(1 0 0 1 -1436 -848 )">
    <path d="M 1436.5 852  A 3.5 3.5 0 0 1 1440 848.5 L 1554 848.5  A 3.5 3.5 0 0 1 1557.5 852 L 1557.5 870  A 3.5 3.5 0 0 1 1554 873.5 L 1440 873.5  A 3.5 3.5 0 0 1 1436.5 870 L 1436.5 852  Z " fill-rule="nonzero" fill="#ffffff" stroke="none" />
    <path d="M 1436.5 852  A 3.5 3.5 0 0 1 1440 848.5 L 1554 848.5  A 3.5 3.5 0 0 1 1557.5 852 L 1557.5 870  A 3.5 3.5 0 0 1 1554 873.5 L 1440 873.5  A 3.5 3.5 0 0 1 1436.5 870 L 1436.5 852  Z " stroke-width="1" stroke="#1890ff" fill="none" />
  </g>
</svg>