<?xml version="1.0" encoding="utf-8"?>
<svg version="1.1" xmlns:xlink="http://www.w3.org/1999/xlink" width="23px" height="22px" xmlns="http://www.w3.org/2000/svg">
  <g>
    <path d="M 22.7154947916667 17.9265625  C 22.9051649305556 18.1442708333333  23 18.4020833333333  23 18.7  L 23 20.9  C 23 21.1979166666667  22.9051649305556 21.4557291666667  22.7154947916667 21.6734375  C 22.5258246527778 21.8911458333333  22.3012152777778 22  22.0416666666667 22  L 0.958333333333315 22  C 0.698784722222229 22  0.474175347222229 21.8911458333333  0.284505208333314 21.6734375  C 0.0948350694444002 21.4557291666667  0 21.1979166666667  0 20.9  L 0 18.7  C 0 18.4020833333333  0.0948350694444002 18.1442708333333  0.284505208333314 17.9265625  C 0.474175347222229 17.7088541666667  0.698784722222229 17.6  0.958333333333315 17.6  L 22.0416666666667 17.6  C 22.3012152777778 17.6  22.5258246527778 17.7088541666667  22.7154947916667 17.9265625  Z M 22.7154947916667 9.12656250000001  C 22.9051649305556 9.34427083333333  23 9.60208333333333  23 9.90000000000001  L 23 12.1  C 23 12.3979166666667  22.9051649305556 12.6557291666667  22.7154947916667 12.8734375  C 22.5258246527778 13.0911458333333  22.3012152777778 13.2  22.0416666666667 13  L 0.958333333333315 13  C 0.698784722222229 13.2  0.474175347222229 13.0911458333333  0.284505208333314 12.8734375  C 0.0948350694444002 12.6557291666667  0 12.3979166666667  0 12.1  L 0 9.90000000000001  C 0 9.60208333333333  0.0948350694444002 9.34427083333333  0.284505208333314 9.12656250000001  C 0.474175347222229 8.90885416666666  0.698784722222229 8.80000000000001  0.958333333333315 9  L 13.4999999793382 9  L 22.0416666666667 8.80000000000001  C 22.3012152777778 8.80000000000001  22.5258246527778 8.90885416666666  22.7154947916667 9.12656250000001  Z M 22.7154947916667 0.326562499999994  C 22.9051649305556 0.544270833333343  23 0.802083333333343  23 1.09999999999999  L 23 3.30000000000001  C 23 3.59791666666666  22.9051649305556 3.85572916666666  22.7154947916667 4.07343750000001  C 22.5258246527778 4.29114583333333  22.3012152777778 4.40000000000001  22.0416666666667 4.40000000000001  L 0.958333333333315 4.40000000000001  C 0.698784722222229 4.40000000000001  0.474175347222229 4.29114583333333  0.284505208333314 4.07343750000001  C 0.0948350694444002 3.85572916666666  0 3.59791666666666  0 3.30000000000001  L 0 1.09999999999999  C 0 0.802083333333343  0.0948350694444002 0.544270833333343  0.284505208333314 0.326562499999994  C 0.474175347222229 0.108854166666674  0.698784722222229 0  0.958333333333315 0  L 22.0416666666667 0  C 22.3012152777778 0  22.5258246527778 0.108854166666674  22.7154947916667 0.326562499999994  Z " fill-rule="nonzero" fill="#ffffff" stroke="none" />
  </g>
</svg>