<?xml version="1.0" encoding="utf-8"?>
<svg version="1.1" xmlns:xlink="http://www.w3.org/1999/xlink" width="17px" height="15px" xmlns="http://www.w3.org/2000/svg">
  <g transform="matrix(1 0 0 1 -16 -22 )">
    <path d="M 11.0825695904018 1.36492265625  L 14.9564482332589 1.36492265625  C 15.3127015424107 1.36492265625  15.6021076261161 1.64021908052885  15.6021076261161 1.97842669471154  L 15.6021076261161 5.04596536658653  C 15.6021076261161 5.38417298076922  15.3127015613839 5.65946940504807  14.9564482332589 5.65946940504807  L 10.4369490357143 5.65946942307693  L 10.4369490357143 1.97842669471154  C 10.4369490357143 1.64021908052885  10.7263356908482 1.36492265625  11.0825695904018 1.36492265625  Z M 2.0435711763393 1.36492265625  L 5.91743040959821 1.36492265625  C 6.2736643091518 1.36492265625  6.56308980245535 1.64021908052885  6.56308980245535 1.97842669471154  L 6.56308980245535 5.65946940504807  L 2.0435711763393 5.65946940504807  C 1.68733727678571 5.65946940504807  1.39793121205358 5.38417298076922  1.39793121205358 5.04596536658653  L 1.39793121205358 1.97842669471154  C 1.39793121205358 1.64021908052885  1.68733727678571 1.36492265625  2.0435711763393 1.36492265625  Z M 10.4369490357143 9.34053057692307  L 14.9564482332589 9.34053057692307  C 15.3127015424107 9.34053057692307  15.6021076261161 9.61582700120192  15.6021076261161 9.95403461538461  L 15.6021076261161 13.0215732872596  C 15.6021076261161 13.3597809014423  15.3127015613839 13.6350773257212  14.9564482332589 13.6350773257212  L 11.0825695904018 13.63507734375  C 10.7263356908482 13.63507734375  10.4369490357143 13.3597809194711  10.4369490357143 13.0215733052885  L 10.4369490357143 9.34053057692307  Z M 2.0435711763393 9.34053059495193  L 6.56308980245535 9.34053057692307  L 6.56308980245535 13.0215732872596  C 6.56308980245535 13.3597809014423  6.27366432812499 13.6350773257211  5.91743040959821 13.6350773257211  L 2.0435711763393 13.63507734375  C 1.68733727678571 13.63507734375  1.39793121205358 13.3597809194711  1.39793121205358 13.0215733052885  L 1.39793121205358 9.95403463341347  C 1.39793121205358 9.61582701923078  1.68733727678571 9.34053059495193  2.0435711763393 9.34053059495193  Z M 14.9564482332589 0.137896117788472  L 11.0825695904018 0.137896117788472  C 10.0126252979911 0.137896117788472  9.14564967857143 0.961700661057705  9.14564967857143 1.97842669471154  L 9.14564967857143 6.8864959435096  L 14.9564288236607 6.8864959435096  C 16.0264119542411 6.8864959435096  16.8933681450893 6.0626914002404  16.8933681450893 5.04598381009615  L 16.8933681450893 1.97842669471154  C 16.8933681450893 0.961700661057705  16.0264313638393 0.137896117788472  14.9564482332589 0.137896117788472  Z M 5.91743040959821 0.137896117788472  L 2.0435711763393 0.137896117788472  C 0.97358804575893 0.137896117788472  0.106631854910717 0.961700661057705  0.106631854910717 1.97842669471154  L 0.106631854910717 5.04596536658653  C 0.106631854910717 6.06267295673078  0.973588064732155 6.88647750000001  2.0435711763393 6.88647750000001  L 7.85436974999999 6.88647750000001  L 7.85436973102679 1.97842669471154  C 7.85436973102679 0.961700661057705  6.98741354017858 0.137896117788472  5.91743040959821 0.137896117788472  Z M 14.9564482332589 8.11350403846154  L 9.14564967857143 8.11350403846154  L 9.14564967857143 13.0215732872596  C 9.14564967857143 14.0382808774038  10.0126058883929 14.8621038641827  11.0825695904018 14.8621038641827  L 14.9564288236607 14.8621038641827  C 16.0264119542411 14.8621038641827  16.8933681450893 14.0382993209135  16.8933681450893 13.0215732872596  L 16.8933681450893 9.95403463341347  C 16.8933681450893 8.93730858173078  16.0264313638393 8.11350403846154  14.9564482332589 8.11350403846154  Z M 7.85436973102679 8.11350403846154  L 2.0435711763393 8.11350403846154  C 0.97358804575893 8.11350403846154  0.106631854910717 8.93730858173078  0.106631854910717 9.95403461538461  L 0.106631854910717 13.0215732872596  C 0.106631854910717 14.0382808774038  0.973588064732155 14.8621038641827  2.0435711763393 14.8621038641827  L 5.91743040959821 14.8621038641827  C 6.98741354017858 14.8621038641827  7.85436973102679 14.0382993209135  7.85436973102679 13.0215732872596  L 7.85436973102679 8.11350403846154  Z " fill-rule="nonzero" fill="#c9c9c9" stroke="none" transform="matrix(1 0 0 1 16 22 )" />
  </g>
</svg>