<?xml version="1.0" encoding="utf-8"?>
<svg version="1.1" xmlns:xlink="http://www.w3.org/1999/xlink" width="20px" height="20px" xmlns="http://www.w3.org/2000/svg">
  <g transform="matrix(1 0 0 1 -338 -63 )">
    <path d="M 5.41294642857144 11.0379464285714  L 2.41071428571428 13.046875  L 9.140625 17.5334821428571  L 9.140625 13.5267857142857  L 5.41294642857144 11.0379464285714  Z M 1.71875 8.56026785714286  L 1.71875 11.4397321428571  L 3.87276785714283 10  L 1.71875 8.56026785714286  Z M 10.859375 13.5267857142857  L 10.859375 17.5334821428571  L 17.5892857142857 13.046875  L 14.5870535714286 11.0379464285714  L 10.859375 13.5267857142857  Z M 6.96428571428572 10  L 10 12.03125  L 13.0357142857143 10  L 10 7.96875  L 6.96428571428572 10  Z M 2.41071428571428 6.953125  L 5.41294642857144 8.96205357142857  L 9.140625 6.47321428571428  L 9.140625 2.46651785714285  L 2.41071428571428 6.953125  Z M 18.28125 8.56026785714286  L 16.1272321428572 10  L 18.28125 11.4397321428571  L 18.28125 8.56026785714286  Z M 10.859375 6.47321428571428  L 14.5870535714286 8.96205357142857  L 17.5892857142857 6.953125  L 10.859375 2.46651785714285  L 10.859375 6.47321428571428  Z M 19.6205357142857 6.23883928571428  C 19.8735119047619 6.40997023809524  20 6.64806547619047  20 6.953125  L 20 13.046875  C 20 13.3519345238095  19.8735119047619 13.5900297619048  19.6205357142857 13.7611607142857  L 10.4799107142857 19.8549107142857  C 10.3236607142857 19.9516369047619  10.1636904761905 20  10 20  C 9.83630952380952 20  9.67633928571428 19.9516369047619  9.52008928571428 19.8549107142857  L 0.379464285714278 13.7611607142857  C 0.12648809523813 13.5900297619048  0 13.3519345238095  0 13.046875  L 0 6.953125  C 0 6.64806547619047  0.12648809523813 6.40997023809524  0.379464285714278 6.23883928571428  L 9.52008928571428 0.145089285714285  C 9.67633928571428 0.0483630952380949  9.83630952380952 0  10 0  C 10.1636904761905 0  10.3236607142857 0.0483630952380949  10.4799107142857 0.145089285714285  L 19.6205357142857 6.23883928571428  Z " fill-rule="nonzero" fill="#ffffff" stroke="none" transform="matrix(1 0 0 1 338 63 )" />
  </g>
</svg>