<?xml version="1.0" encoding="utf-8"?>
<svg version="1.1" xmlns:xlink="http://www.w3.org/1999/xlink" width="55px" height="25px" xmlns="http://www.w3.org/2000/svg">
  <g transform="matrix(1 0 0 1 -484 1 )">
    <path d="M 485 3  A 3 3 0 0 1 488 0 L 535 0  A 3 3 0 0 1 538 3 L 538 20  A 3 3 0 0 1 535 23 L 488 23  A 3 3 0 0 1 485 20 L 485 3  Z " fill-rule="nonzero" fill="#ffffff" stroke="none" />
    <path d="M 484.5 3  A 3.5 3.5 0 0 1 488 -0.5 L 535 -0.5  A 3.5 3.5 0 0 1 538.5 3 L 538.5 20  A 3.5 3.5 0 0 1 535 23.5 L 488 23.5  A 3.5 3.5 0 0 1 484.5 20 L 484.5 3  Z " stroke-width="1" stroke="#000000" fill="none" stroke-opacity="0.149019607843137" />
  </g>
</svg>