<?xml version="1.0" encoding="utf-8"?>
<svg version="1.1" xmlns:xlink="http://www.w3.org/1999/xlink" width="26px" height="24px" xmlns="http://www.w3.org/2000/svg">
  <defs>
    <filter x="679px" y="4px" width="26px" height="24px" filterUnits="userSpaceOnUse" id="filter19">
      <feOffset dx="1" dy="1" in="SourceAlpha" result="shadowOffsetInner" />
      <feGaussianBlur stdDeviation="2.5" in="shadowOffsetInner" result="shadowGaussian" />
      <feComposite in2="shadowGaussian" operator="atop" in="SourceAlpha" result="shadowComposite" />
      <feColorMatrix type="matrix" values="0 0 0 0 0.2  0 0 0 0 0.4  0 0 0 0 0.8  0 0 0 0.349019607843137 0  " in="shadowComposite" />
    </filter>
    <g id="widget20">
      <path d="M 16 1.02368000000001  L 11.9882105263158 1.02368000000001  L 11.9882105263158 0.029120000000006  L 10.9911578947368 0.029120000000006  L 10.9911578947368 1.02368000000001  L 5.00884210526314 1.02368000000001  L 5.00884210526314 0.029120000000006  L 4.01178947368422 0.029120000000006  L 4.01178947368422 1.02368000000001  L 0 1.02368000000001  L 0 14  L 16 14  L 16 1.02368000000001  Z M 14.988350877193 6  L 14.988350877193 13  L 1.011649122807 13  L 1.011649122807 6  L 14.988350877193 6  Z M 14.9793684210526 5.01088000000001  L 14.988350877193 5  L 1.011649122807 5  L 1.011649122807 1.91968000000001  L 4.00280701754384 1.91968000000001  L 4.00280701754384 3.01279999999998  L 4.99985964912281 3.01279999999998  L 4.99985964912281 1.91968000000001  L 10.9911578947368 1.91968000000001  L 10.9911578947368 3.01279999999998  L 11.9882105263158 3.01279999999998  L 11.9882105263158 1.91968000000001  L 14.9793684210526 1.91968000000001  L 14.9793684210526 5.01088000000001  Z " fill-rule="nonzero" fill="#d7d7d7" stroke="none" transform="matrix(1 0 0 1 683 8 )" />
    </g>
  </defs>
  <g transform="matrix(1 0 0 1 -679 -4 )">
    <use xlink:href="#widget20" filter="url(#filter19)" />
    <use xlink:href="#widget20" />
  </g>
</svg>