<?xml version="1.0" encoding="utf-8"?>
<svg version="1.1" xmlns:xlink="http://www.w3.org/1999/xlink" width="13px" height="13px" xmlns="http://www.w3.org/2000/svg">
  <g transform="matrix(1 0 0 1 -1327 -14 )">
    <path d="M 12.8697394789581 5.9751552795031  C 12.9565798263193 6.06487232574187  13 6.16804692891648  13 6.28467908902692  C 13 6.40131124913734  12.9565798263193 6.50448585231194  12.8697394789581 6.59420289855072  L 6.79959919839689 12.8654244306418  C 6.71275885103546 12.9551414768806  6.61289245156968 13  6.5 13  C 6.38710754843032 13  6.28724114896454 12.9551414768806  6.20040080160311 12.8654244306418  L 0.130260521041919 6.59420289855072  C 0.0434201736807154 6.50448585231194  0 6.40131124913734  0 6.28467908902692  C 0 6.16804692891648  0.0434201736807154 6.06487232574187  0.130260521041919 5.9751552795031  L 0.781563126252649 5.30227743271223  C 0.868403473613853 5.21256038647343  0.968269873079407 5.16770186335404  1.08116232464931 5.16770186335404  C 1.19405477621899 5.16770186335404  1.29392117568455 5.21256038647343  1.3807615230462 5.30227743271223  L 6.5 10.5910973084886  L 11.6192384769538 5.30227743271223  C 11.7060788243155 5.21256038647343  11.805945223781 5.16770186335404  11.9188376753507 5.16770186335404  C 12.0317301269206 5.16770186335404  12.1315965263861 5.21256038647343  12.2184368737476 5.30227743271223  L 12.8697394789581 5.9751552795031  Z M 12.8697394789581 0.807453416149059  C 12.9565798263193 0.897170462387862  13 1.00034506556244  13 1.11697722567288  C 13 1.2336093857833  12.9565798263193 1.3367839889579  12.8697394789581 1.42650103519668  L 6.79959919839689 7.69772256728777  C 6.71275885103546 7.78743961352657  6.61289245156968 7.83229813664596  6.5 7.83229813664596  C 6.38710754843032 7.83229813664596  6.28724114896454 7.78743961352657  6.20040080160311 7.69772256728777  L 0.130260521041919 1.42650103519668  C 0.0434201736807154 1.3367839889579  0 1.2336093857833  0 1.11697722567288  C 0 1.00034506556244  0.0434201736807154 0.897170462387862  0.130260521041919 0.807453416149059  L 0.781563126252649 0.134575569358162  C 0.868403473613853 0.0448585231193874  0.968269873079407 0  1.08116232464931 0  C 1.19405477621899 0  1.29392117568455 0.0448585231193874  1.3807615230462 0.134575569358162  L 6.5 5.42339544513459  L 11.6192384769538 0.134575569358162  C 11.7060788243155 0.0448585231193874  11.805945223781 0  11.9188376753507 0  C 12.0317301269206 0  12.1315965263861 0.0448585231193874  12.2184368737476 0.134575569358162  L 12.8697394789581 0.807453416149059  Z " fill-rule="nonzero" fill="#797979" stroke="none" transform="matrix(1 0 0 1 1327 14 )" />
  </g>
</svg>