<?xml version="1.0" encoding="utf-8"?>
<svg version="1.1" xmlns:xlink="http://www.w3.org/1999/xlink" width="5px" height="6px" xmlns="http://www.w3.org/2000/svg">
  <g transform="matrix(1 0 0 1 -296 -8 )">
    <path d="M 4.87538270415473 2.84822677705813  L 0.641708590512849 0.11630876410436  C 0.507306232448741 0.0295812047497748  0.305702713727896 0.0295812047497748  0.171300355663789 0.11630876410436  C 0.0368979975996808 0.203036323458946  0.0368979975996808 0.333127650633514  0.171300355663789 0.4198552099881  L 4.16977035188108 3  L 0.171300355663789 5.5801447900119  C 0.0368979975996808 5.66687234936649  0.0368979975996808 5.79696367654105  0.171300355663789 5.88369123589564  C 0.238501534695843 5.92705501557293  0.339303294056208 5.94873689948292  0.406504473088262 5.94873689948292  C 0.473705652120429 5.94873689948292  0.574507411480795 5.92705501557293  0.641708590512849 5.88369123589564  L 4.87538270415473 3.15177322294187  C 5.00978506221884 3.06504566358728  5.00978506221884 2.93495433641272  4.87538270415473 2.84822677705813  Z " fill-rule="nonzero" fill="#096dd9" stroke="none" transform="matrix(1 0 0 1 296 8 )" />
  </g>
</svg>