<?xml version="1.0" encoding="utf-8"?>
<svg version="1.1" xmlns:xlink="http://www.w3.org/1999/xlink" width="38px" height="25px" xmlns="http://www.w3.org/2000/svg">
  <g transform="matrix(1 0 0 1 -342 3 )">
    <path d="M 343 1  A 3 3 0 0 1 346 -2 L 376 -2  A 3 3 0 0 1 379 1 L 379 18  A 3 3 0 0 1 376 21 L 346 21  A 3 3 0 0 1 343 18 L 343 1  Z " fill-rule="nonzero" fill="#ffffff" stroke="none" />
    <path d="M 342.5 1  A 3.5 3.5 0 0 1 346 -2.5 L 376 -2.5  A 3.5 3.5 0 0 1 379.5 1 L 379.5 18  A 3.5 3.5 0 0 1 376 21.5 L 346 21.5  A 3.5 3.5 0 0 1 342.5 18 L 342.5 1  Z " stroke-width="1" stroke="#000000" fill="none" stroke-opacity="0.149019607843137" />
  </g>
</svg>