<?xml version="1.0" encoding="utf-8"?>
<svg version="1.1" xmlns:xlink="http://www.w3.org/1999/xlink" width="10px" height="15px" xmlns="http://www.w3.org/2000/svg">
  <g transform="matrix(1 0 0 1 -375 -597 )">
    <path d="M 2.626953125 7.06168831168827  L 9.560546875 0.146103896103909  C 9.68424479166669 0.0227272727272521  9.78841145833331 -0.0194805194805667  9.873046875 0.0194805194805667  C 9.95768229166669 0.0584415584414728  10 0.162337662337677  10 0.331168831168839  L 10 14.6688311688312  C 10 14.8376623376623  9.95768229166669 14.9415584415584  9.873046875 14.9805194805194  C 9.78841145833331 15.0194805194806  9.68424479166669 14.9772727272727  9.560546875 14.8538961038961  L 2.626953125 7.93831168831173  C 2.568359375 7.87987012987014  2.52604166666669 7.81818181818187  2.5 7.7532467532468  L 2.5 14.3571428571429  C 2.5 14.5259740259741  2.43815104166669 14.672077922078  2.314453125 14.7954545454545  C 2.19075520833331 14.9188311688312  2.04427083333331 14.9805194805194  1.875 14.9805194805194  L 0.625 14.9805194805194  C 0.455729166666686 14.9805194805194  0.309244791666686 14.9188311688312  0.185546875 14.7954545454545  C 0.0618489583333144 14.672077922078  0 14.5259740259741  0 14.3571428571429  L 0 0.64285714285711  C 0 0.474025974025949  0.0618489583333144 0.32792207792204  0.185546875 0.204545454545496  C 0.309244791666686 0.0811688311688386  0.455729166666686 0.0194805194805667  0.625 0.0194805194805667  L 1.875 0.0194805194805667  C 2.04427083333331 0.0194805194805667  2.19075520833331 0.0811688311688386  2.314453125 0.204545454545496  C 2.43815104166669 0.32792207792204  2.5 0.474025974025949  2.5 0.64285714285711  L 2.5 7.2467532467532  C 2.52604166666669 7.18181818181824  2.568359375 7.12012987012986  2.626953125 7.06168831168827  Z " fill-rule="nonzero" fill="#000000" stroke="none" transform="matrix(1 0 0 1 375 597 )" />
  </g>
</svg>