<?xml version="1.0" encoding="utf-8"?>
<svg version="1.1" xmlns:xlink="http://www.w3.org/1999/xlink" width="10px" height="17px" xmlns="http://www.w3.org/2000/svg">
  <g transform="matrix(1 0 0 1 -446 -594 )">
    <path d="M 9.67013888888891 0.3154296875  C 9.8900462962963 0.525716145833371  10 0.774739583333371  10 1.0625  L 10 15.9375  C 10 16.2252604166666  9.8900462962963 16.4742838541666  9.67013888888891 16.6845703125  C 9.45023148148147 16.8948567708334  9.18981481481484 17  8.88888888888891 17  C 8.58796296296299 17  8.3275462962963 16.8948567708334  8.10763888888891 16.6845703125  L 0.329861111111086 9.2470703125  C 0.109953703703695 9.03678385416663  0 8.78776041666663  0 8.5  C 0 8.21223958333337  0.109953703703695 7.96321614583337  0.329861111111086 7.7529296875  L 8.10763888888891 0.3154296875  C 8.3275462962963 0.105143229166629  8.58796296296299 0  8.88888888888891 0  C 9.18981481481484 0  9.45023148148147 0.105143229166629  9.67013888888891 0.3154296875  Z " fill-rule="nonzero" fill="#000000" stroke="none" transform="matrix(1 0 0 1 446 594 )" />
  </g>
</svg>