<?xml version="1.0" encoding="utf-8"?>
<svg version="1.1" xmlns:xlink="http://www.w3.org/1999/xlink" width="11px" height="9px" xmlns="http://www.w3.org/2000/svg">
  <defs>
    <mask fill="white" id="clip36">
      <path d="M 11 1.99565217391296  C 11 2.1492753623188  10.956782464847 2.2811594202899  10.8703473945409 2.39130434782612  L 5.80707196029778 8.8347826086956  C 5.72063688999174 8.94492753623183  5.61827956989248 9  5.5 9  C 5.38172043010752 9  5.27936311000826 8.94492753623183  5.19292803970222 8.8347826086956  L 0.129652605459057 2.39130434782612  C 0.0432175351530191 2.2811594202899  0 2.1492753623188  0 1.99565217391296  C 0 1.84202898550723  0.0432175351530191 1.71014492753625  0.129652605459057 1.60000000000002  L 1.26240694789084 0.165217391304395  C 1.34884201819682 0.0550724637681697  1.45119933829608 0  1.56947890818861 0  C 1.68775847808104 0  1.7901157981803 0.0550724637681697  1.87655086848639 0.165217391304395  L 5.5 4.78260869565213  L 9.12344913151361 0.165217391304395  C 9.2098842018197 0.0550724637681697  9.31224152191896 0  9.43052109181139 0  C 9.54880066170392 0  9.65115798180318 0.0550724637681697  9.73759305210916 0.165217391304395  L 10.8703473945409 1.60000000000002  C 10.956782464847 1.71014492753625  11 1.84202898550723  11 1.99565217391296  Z " fill-rule="evenodd" />
    </mask>
  </defs>
  <g transform="matrix(1 0 0 1 -307 -600 )">
    <path d="M 11 1.99565217391296  C 11 2.1492753623188  10.956782464847 2.2811594202899  10.8703473945409 2.39130434782612  L 5.80707196029778 8.8347826086956  C 5.72063688999174 8.94492753623183  5.61827956989248 9  5.5 9  C 5.38172043010752 9  5.27936311000826 8.94492753623183  5.19292803970222 8.8347826086956  L 0.129652605459057 2.39130434782612  C 0.0432175351530191 2.2811594202899  0 2.1492753623188  0 1.99565217391296  C 0 1.84202898550723  0.0432175351530191 1.71014492753625  0.129652605459057 1.60000000000002  L 1.26240694789084 0.165217391304395  C 1.34884201819682 0.0550724637681697  1.45119933829608 0  1.56947890818861 0  C 1.68775847808104 0  1.7901157981803 0.0550724637681697  1.87655086848639 0.165217391304395  L 5.5 4.78260869565213  L 9.12344913151361 0.165217391304395  C 9.2098842018197 0.0550724637681697  9.31224152191896 0  9.43052109181139 0  C 9.54880066170392 0  9.65115798180318 0.0550724637681697  9.73759305210916 0.165217391304395  L 10.8703473945409 1.60000000000002  C 10.956782464847 1.71014492753625  11 1.84202898550723  11 1.99565217391296  Z " fill-rule="nonzero" fill="#000000" stroke="none" transform="matrix(1 0 0 1 307 600 )" />
    <path d="M 11 1.99565217391296  C 11 2.1492753623188  10.956782464847 2.2811594202899  10.8703473945409 2.39130434782612  L 5.80707196029778 8.8347826086956  C 5.72063688999174 8.94492753623183  5.61827956989248 9  5.5 9  C 5.38172043010752 9  5.27936311000826 8.94492753623183  5.19292803970222 8.8347826086956  L 0.129652605459057 2.39130434782612  C 0.0432175351530191 2.2811594202899  0 2.1492753623188  0 1.99565217391296  C 0 1.84202898550723  0.0432175351530191 1.71014492753625  0.129652605459057 1.60000000000002  L 1.26240694789084 0.165217391304395  C 1.34884201819682 0.0550724637681697  1.45119933829608 0  1.56947890818861 0  C 1.68775847808104 0  1.7901157981803 0.0550724637681697  1.87655086848639 0.165217391304395  L 5.5 4.78260869565213  L 9.12344913151361 0.165217391304395  C 9.2098842018197 0.0550724637681697  9.31224152191896 0  9.43052109181139 0  C 9.54880066170392 0  9.65115798180318 0.0550724637681697  9.73759305210916 0.165217391304395  L 10.8703473945409 1.60000000000002  C 10.956782464847 1.71014492753625  11 1.84202898550723  11 1.99565217391296  Z " stroke-width="10" stroke="#363636" fill="none" transform="matrix(1 0 0 1 307 600 )" mask="url(#clip36)" />
  </g>
</svg>