<?xml version="1.0" encoding="utf-8"?>
<svg version="1.1" xmlns:xlink="http://www.w3.org/1999/xlink" width="13px" height="17px" xmlns="http://www.w3.org/2000/svg">
  <g transform="matrix(1 0 0 1 -893 -594 )">
    <path d="M 9.5849609375 8.9967532467532  L 0.5712890625 16.8344155844156  C 0.410481770833371 16.9742424242424  0.275065104166629 17.0220779220779  0.1650390625 16.9779220779221  C 0.0550130208333712 16.9337662337663  0 16.8160173160172  0 16.6246753246754  L 0 0.375324675324578  C 0 0.183982683982777  0.0550130208333712 0.0662337662337222  0.1650390625 0.0220779220778695  C 0.275065104166629 -0.0220779220778695  0.410481770833371 0.0257575757575523  0.5712890625 0.165584415584362  L 9.5849609375 8.0032467532468  C 9.6611328125 8.06948051948052  9.71614583333337 8.13939393939393  9.75 8.2129870129869  L 9.75 0.728571428571399  C 9.75 0.537229437229485  9.83040364583337 0.371645021645008  9.9912109375 0.231818181818198  C 10.1520182291666 0.0919913419912746  10.3424479166666 0.0220779220778695  10.5625 0.0220779220778695  L 12.1875 0.0220779220778695  C 12.4075520833334 0.0220779220778695  12.5979817708334 0.0919913419912746  12.7587890625 0.231818181818198  C 12.9195963541666 0.371645021645008  13 0.537229437229485  13 0.728571428571399  L 13 16.2714285714287  C 13 16.4627705627705  12.9195963541666 16.628354978355  12.7587890625 16.7681818181818  C 12.5979817708334 16.9080086580087  12.4075520833334 16.9779220779221  12.1875 16.9779220779221  L 10.5625 16.9779220779221  C 10.3424479166666 16.9779220779221  10.1520182291666 16.9080086580087  9.9912109375 16.7681818181818  C 9.83040364583337 16.628354978355  9.75 16.4627705627705  9.75 16.2714285714287  L 9.75 8.7870129870131  C 9.71614583333337 8.86060606060607  9.6611328125 8.93051948051948  9.5849609375 8.9967532467532  Z " fill-rule="nonzero" fill="#000000" stroke="none" transform="matrix(1 0 0 1 893 594 )" />
  </g>
</svg>