<?xml version="1.0" encoding="utf-8"?>
<svg version="1.1" xmlns:xlink="http://www.w3.org/1999/xlink" width="10px" height="17px" xmlns="http://www.w3.org/2000/svg">
  <g transform="matrix(1 0 0 1 -803 -594 )">
    <path d="M 9.6701388888888 7.7529296875  C 9.8900462962963 7.96321614583337  10 8.21223958333337  10 8.5  C 10 8.78776041666663  9.8900462962963 9.03678385416663  9.6701388888888 9.2470703125  L 1.89236111111109 16.6845703125  C 1.6724537037037 16.8948567708334  1.41203703703701 17  1.11111111111109 17  C 0.810185185185162 17  0.549768518518533 16.8948567708334  0.329861111111086 16.6845703125  C 0.109953703703695 16.4742838541666  0 16.2252604166666  0 15.9375  L 0 1.0625  C 0 0.774739583333371  0.109953703703695 0.525716145833371  0.329861111111086 0.3154296875  C 0.549768518518533 0.105143229166629  0.810185185185162 0  1.11111111111109 0  C 1.41203703703701 0  1.6724537037037 0.105143229166629  1.89236111111109 0.3154296875  L 9.6701388888888 7.7529296875  Z " fill-rule="nonzero" fill="#000000" stroke="none" transform="matrix(1 0 0 1 803 594 )" />
  </g>
</svg>