<?xml version="1.0" encoding="utf-8"?>
<svg version="1.1" xmlns:xlink="http://www.w3.org/1999/xlink" width="21px" height="19px" xmlns="http://www.w3.org/2000/svg">
  <g transform="matrix(1 0 0 1 -580 -52 )">
    <path d="M 1.61538461538464 14.5892857142857  L 1.61538461538464 17.6428571428571  L 5.25 17.6428571428571  L 5.25 14.5892857142857  L 1.61538461538464 14.5892857142857  Z M 6.05769230769226 14.5892857142857  L 6.05769230769226 17.6428571428571  L 10.0961538461538 17.6428571428571  L 10.0961538461538 14.5892857142857  L 6.05769230769226 14.5892857142857  Z M 1.61538461538464 10.5178571428571  L 1.61538461538464 13.9107142857143  L 5.25 13.9107142857143  L 5.25 10.5178571428571  L 1.61538461538464 10.5178571428571  Z M 6.05769230769226 10.5178571428571  L 6.05769230769226 13.9107142857143  L 10.0961538461538 13.9107142857143  L 10.0961538461538 10.5178571428571  L 6.05769230769226 10.5178571428571  Z M 1.61538461538464 6.78571428571428  L 1.61538461538464 9.83928571428572  L 5.25 9.83928571428572  L 5.25 6.78571428571428  L 1.61538461538464 6.78571428571428  Z M 10.9038461538462 14.5892857142857  L 10.9038461538462 17.6428571428571  L 14.9423076923077 17.6428571428571  L 14.9423076923077 14.5892857142857  L 10.9038461538462 14.5892857142857  Z M 6.05769230769226 6.78571428571428  L 6.05769230769226 9.83928571428572  L 10.0961538461538 9.83928571428572  L 10.0961538461538 6.78571428571428  L 6.05769230769226 6.78571428571428  Z M 15.75 14.5892857142857  L 15.75 17.6428571428571  L 19.3846153846154 17.6428571428571  L 19.3846153846154 14.5892857142857  L 15.75 14.5892857142857  Z M 10.9038461538462 10.5178571428571  L 10.9038461538462 13.9107142857143  L 14.9423076923077 13.9107142857143  L 14.9423076923077 10.5178571428571  L 10.9038461538462 10.5178571428571  Z M 6.34164663461536 4.98856026785714  C 6.42157451923072 4.9214099702381  6.46153846153845 4.84188988095238  6.46153846153845 4.75  L 6.46153846153845 1.69642857142858  C 6.46153846153845 1.6045386904762  6.42157451923072 1.52501860119048  6.34164663461536 1.45786830357142  C 6.26171875 1.39071800595238  6.16706730769226 1.35714285714286  6.05769230769226 1.35714285714286  L 5.25 1.35714285714286  C 5.140625 1.35714285714286  5.04597355769226 1.39071800595238  4.96604567307691 1.45786830357142  C 4.88611778846155 1.52501860119048  4.84615384615381 1.6045386904762  4.84615384615381 1.69642857142858  L 4.84615384615381 4.75  C 4.84615384615381 4.84188988095238  4.88611778846155 4.9214099702381  4.96604567307691 4.98856026785714  C 5.04597355769226 5.0557105654762  5.140625 5.08928571428572  5.25 5.08928571428572  L 6.05769230769226 5.08928571428572  C 6.16706730769226 5.08928571428572  6.26171875 5.0557105654762  6.34164663461536 4.98856026785714  Z M 15.75 10.5178571428571  L 15.75 13.9107142857143  L 19.3846153846154 13.9107142857143  L 19.3846153846154 10.5178571428571  L 15.75 10.5178571428571  Z M 10.9038461538462 6.78571428571428  L 10.9038461538462 9.83928571428572  L 14.9423076923077 9.83928571428572  L 14.9423076923077 6.78571428571428  L 10.9038461538462 6.78571428571428  Z M 15.75 6.78571428571428  L 15.75 9.83928571428572  L 19.3846153846154 9.83928571428572  L 19.3846153846154 6.78571428571428  L 15.75 6.78571428571428  Z M 16.0339543269231 4.98856026785714  C 16.1138822115385 4.9214099702381  16.1538461538462 4.84188988095238  16.1538461538462 4.75  L 16.1538461538462 1.69642857142858  C 16.1538461538462 1.6045386904762  16.1138822115385 1.52501860119048  16.0339543269231 1.45786830357142  C 15.9540264423077 1.39071800595238  15.859375 1.35714285714286  15.75 1.35714285714286  L 14.9423076923077 1.35714285714286  C 14.8329326923077 1.35714285714286  14.73828125 1.39071800595238  14.6583533653846 1.45786830357142  C 14.5784254807693 1.52501860119048  14.5384615384615 1.6045386904762  14.5384615384615 1.69642857142858  L 14.5384615384615 4.75  C 14.5384615384615 4.84188988095238  14.5784254807693 4.9214099702381  14.6583533653846 4.98856026785714  C 14.73828125 5.0557105654762  14.8329326923077 5.08928571428572  14.9423076923077 5.08928571428572  L 15.75 5.08928571428572  C 15.859375 5.08928571428572  15.9540264423077 5.0557105654762  16.0339543269231 4.98856026785714  Z M 20.5204326923077 3.1171875  C 20.8401442307693 3.3857886904762  21 3.70386904761904  21 4.07142857142858  L 21 17.6428571428571  C 21 18.0104166666667  20.8401442307693 18.3284970238095  20.5204326923077 18.5970982142857  C 20.2007211538462 18.8656994047619  19.8221153846154 19  19.3846153846154 19  L 1.61538461538464 19  C 1.17788461538464 19  0.799278846153811 18.8656994047619  0.479567307692264 18.5970982142857  C 0.159855769230717 18.3284970238095  0 18.0104166666667  0 17.6428571428571  L 0 4.07142857142858  C 0 3.70386904761904  0.159855769230717 3.3857886904762  0.479567307692264 3.1171875  C 0.799278846153811 2.8485863095238  1.17788461538464 2.71428571428572  1.61538461538464 2.71428571428572  L 3.23076923076928 2.71428571428572  L 3.23076923076928 1.69642857142858  C 3.23076923076928 1.22991071428572  3.42848557692309 0.830543154761898  3.82391826923072 0.498325892857139  C 4.21935096153845 0.16610863095238  4.69471153846155 0  5.25 0  L 6.05769230769226 0  C 6.61298076923072 0  7.08834134615381 0.16610863095238  7.48377403846155 0.498325892857139  C 7.87920673076928 0.830543154761898  8.07692307692309 1.22991071428572  8.07692307692309 1.69642857142858  L 8.07692307692309 2.71428571428572  L 12.9230769230769 2.71428571428572  L 12.9230769230769 1.69642857142858  C 12.9230769230769 1.22991071428572  13.1207932692307 0.830543154761898  13.5162259615385 0.498325892857139  C 13.9116586538462 0.16610863095238  14.3870192307693 0  14.9423076923077 0  L 15.75 0  C 16.3052884615385 0  16.7806490384615 0.16610863095238  17.1760817307693 0.498325892857139  C 17.5715144230769 0.830543154761898  17.7692307692307 1.22991071428572  17.7692307692307 1.69642857142858  L 17.7692307692307 2.71428571428572  L 19.3846153846154 2.71428571428572  C 19.8221153846154 2.71428571428572  20.2007211538462 2.8485863095238  20.5204326923077 3.1171875  Z " fill-rule="nonzero" fill="#000000" stroke="none" transform="matrix(1 0 0 1 580 52 )" />
  </g>
</svg>