<?xml version="1.0" encoding="utf-8"?>
<svg version="1.1" xmlns:xlink="http://www.w3.org/1999/xlink" width="12px" height="12px" viewBox="150 238  12 12" xmlns="http://www.w3.org/2000/svg">
  <path d="M 156 238  C 159.36 238  162 240.64  162 244  C 162 247.36  159.36 250  156 250  C 152.64 250  150 247.36  150 244  C 150 240.64  152.64 238  156 238  Z " fill-rule="nonzero" fill="#ffffff" stroke="none" />
  <path d="M 156 238.5  C 159.08 238.5  161.5 240.92  161.5 244  C 161.5 247.08  159.08 249.5  156 249.5  C 152.92 249.5  150.5 247.08  150.5 244  C 150.5 240.92  152.92 238.5  156 238.5  Z " stroke-width="1" stroke="#797979" fill="none" />
  <path d="M 156 247  C 154.32 247  153 245.68  153 244  C 153 242.32  154.32 241  156 241  C 157.68 241  159 242.32  159 244  C 159 245.68  157.68 247  156 247  " fill-rule="nonzero" fill="#797979" stroke="none" />
</svg>