<?xml version="1.0" encoding="utf-8"?>
<svg version="1.1" xmlns:xlink="http://www.w3.org/1999/xlink" width="12px" height="12px" viewBox="213 296  12 12" xmlns="http://www.w3.org/2000/svg">
  <path d="M 219 296  C 222.36 296  225 298.64  225 302  C 225 305.36  222.36 308  219 308  C 215.64 308  213 305.36  213 302  C 213 298.64  215.64 296  219 296  Z " fill-rule="nonzero" fill="#ffffff" stroke="none" />
  <path d="M 219 296.5  C 222.08 296.5  224.5 298.92  224.5 302  C 224.5 305.08  222.08 307.5  219 307.5  C 215.92 307.5  213.5 305.08  213.5 302  C 213.5 298.92  215.92 296.5  219 296.5  Z " stroke-width="1" stroke="#797979" fill="none" />
  <path d="M 219 305  C 217.32 305  216 303.68  216 302  C 216 300.32  217.32 299  219 299  C 220.68 299  222 300.32  222 302  C 222 303.68  220.68 305  219 305  " fill-rule="nonzero" fill="#797979" stroke="none" />
</svg>