<?xml version="1.0" encoding="utf-8"?>
<svg version="1.1" xmlns:xlink="http://www.w3.org/1999/xlink" width="12px" height="12px" viewBox="150 296  12 12" xmlns="http://www.w3.org/2000/svg">
  <path d="M 156 296  C 159.36 296  162 298.64  162 302  C 162 305.36  159.36 308  156 308  C 152.64 308  150 305.36  150 302  C 150 298.64  152.64 296  156 296  Z " fill-rule="nonzero" fill="#ffffff" stroke="none" />
  <path d="M 156 296.5  C 159.08 296.5  161.5 298.92  161.5 302  C 161.5 305.08  159.08 307.5  156 307.5  C 152.92 307.5  150.5 305.08  150.5 302  C 150.5 298.92  152.92 296.5  156 296.5  Z " stroke-width="1" stroke="#797979" fill="none" />
  <path d="M 156 305  C 154.32 305  153 303.68  153 302  C 153 300.32  154.32 299  156 299  C 157.68 299  159 300.32  159 302  C 159 303.68  157.68 305  156 305  " fill-rule="nonzero" fill="#797979" stroke="none" />
</svg>