<?xml version="1.0" encoding="utf-8"?>
<svg version="1.1" xmlns:xlink="http://www.w3.org/1999/xlink" width="115px" height="30px" xmlns="http://www.w3.org/2000/svg">
  <defs>
    <mask fill="white" id="clip35">
      <path d="M 115 30  L 0.37826035893454 29.9990817898769  C 4.03749882011044 25.7657682542105  6.16071428571433 20.6115136740905  6.16071428571433 15  C 6.16071428571433 9.38848632590953  4.03749882011044 4.23423174578946  0.379963900534335 0  L 115 0  L 115 30  Z " fill-rule="evenodd" />
    </mask>
  </defs>
  <g transform="matrix(1 0 0 1 -286 -130 )">
    <path d="M 115 30  L 0.37826035893454 29.9990817898769  C 4.03749882011044 25.7657682542105  6.16071428571433 20.6115136740905  6.16071428571433 15  C 6.16071428571433 9.38848632590953  4.03749882011044 4.23423174578946  0.379963900534335 0  L 115 0  L 115 30  Z " fill-rule="nonzero" fill="#545c64" stroke="none" transform="matrix(1 0 0 1 286 130 )" />
    <path d="M 115 30  L 0.37826035893454 29.9990817898769  C 4.03749882011044 25.7657682542105  6.16071428571433 20.6115136740905  6.16071428571433 15  C 6.16071428571433 9.38848632590953  4.03749882011044 4.23423174578946  0.379963900534335 0  L 115 0  L 115 30  Z " stroke-width="2" stroke="#797979" fill="none" transform="matrix(1 0 0 1 286 130 )" mask="url(#clip35)" />
  </g>
</svg>