<?xml version="1.0" encoding="utf-8"?>
<svg version="1.1" xmlns:xlink="http://www.w3.org/1999/xlink" width="69px" height="25px" xmlns="http://www.w3.org/2000/svg">
  <g transform="matrix(1 0 0 1 -678 -338 )">
    <path d="M 678.5 342  A 3.5 3.5 0 0 1 682 338.5 L 743 338.5  A 3.5 3.5 0 0 1 746.5 342 L 746.5 359  A 3.5 3.5 0 0 1 743 362.5 L 682 362.5  A 3.5 3.5 0 0 1 678.5 359 L 678.5 342  Z " fill-rule="nonzero" fill="#ffffff" stroke="none" />
    <path d="M 678.5 342  A 3.5 3.5 0 0 1 682 338.5 L 743 338.5  A 3.5 3.5 0 0 1 746.5 342 L 746.5 359  A 3.5 3.5 0 0 1 743 362.5 L 682 362.5  A 3.5 3.5 0 0 1 678.5 359 L 678.5 342  Z " stroke-width="1" stroke="#3894df" fill="none" />
  </g>
</svg>