<?xml version="1.0" encoding="utf-8"?>
<svg version="1.1" xmlns:xlink="http://www.w3.org/1999/xlink" width="5px" height="7px" xmlns="http://www.w3.org/2000/svg">
  <g transform="matrix(1 0 0 1 -201 -348 )">
    <path d="M 4.87538270415473 3.32293123990115  L 0.641708590512849 0.135693558121687  C 0.507306232448741 0.0345114055413376  0.305702713727896 0.0345114055413376  0.171300355663789 0.135693558121687  C 0.0368979975996808 0.236875710702037  0.0368979975996808 0.388648925739119  0.171300355663789 0.489831078319469  L 4.16977035188108 3.5  L 0.171300355663789 6.51016892168053  C 0.0368979975996808 6.61135107426088  0.0368979975996808 6.76312428929796  0.171300355663789 6.86430644187831  C 0.238501534695843 6.91489751816849  0.339303294056208 6.94019304939681  0.406504473088262 6.94019304939681  C 0.473705652120429 6.94019304939681  0.574507411480795 6.91489751816849  0.641708590512849 6.86430644187831  L 4.87538270415473 3.67706876009885  C 5.00978506221884 3.5758866075185  5.00978506221884 3.4241133924815  4.87538270415473 3.32293123990115  Z " fill-rule="nonzero" fill="#096dd9" stroke="none" transform="matrix(1 0 0 1 201 348 )" />
  </g>
</svg>