<?xml version="1.0" encoding="utf-8"?>
<svg version="1.1" xmlns:xlink="http://www.w3.org/1999/xlink" width="121px" height="26px" xmlns="http://www.w3.org/2000/svg">
  <g transform="matrix(1 0 0 1 -1142 -488 )">
    <path d="M 1142.5 492  A 3.5 3.5 0 0 1 1146 488.5 L 1259 488.5  A 3.5 3.5 0 0 1 1262.5 492 L 1262.5 510  A 3.5 3.5 0 0 1 1259 513.5 L 1146 513.5  A 3.5 3.5 0 0 1 1142.5 510 L 1142.5 492  Z " fill-rule="nonzero" fill="#ffffff" stroke="none" />
    <path d="M 1142.5 492  A 3.5 3.5 0 0 1 1146 488.5 L 1259 488.5  A 3.5 3.5 0 0 1 1262.5 492 L 1262.5 510  A 3.5 3.5 0 0 1 1259 513.5 L 1146 513.5  A 3.5 3.5 0 0 1 1142.5 510 L 1142.5 492  Z " stroke-width="1" stroke="#3894df" fill="none" />
  </g>
</svg>