<?xml version="1.0" encoding="utf-8"?>
<svg version="1.1" xmlns:xlink="http://www.w3.org/1999/xlink" width="29px" height="25px" xmlns="http://www.w3.org/2000/svg">
  <g transform="matrix(1 0 0 1 -1482 -313 )">
    <path d="M 21.9765625 22.607421875  C 22.1973157051282 22.4012586805555  22.3076923076924 22.1571180555555  22.3076923076924 21.875  C 22.3076923076924 21.5928819444445  22.1973157051282 21.3487413194445  21.9765625 21.142578125  C 21.7558092948718 20.9364149305555  21.4943910256411 20.8333333333333  21.1923076923076 20.8333333333333  C 20.8902243589744 20.8333333333333  20.6288060897436 20.9364149305555  20.4080528846155 21.142578125  C 20.1872996794873 21.3487413194445  20.0769230769231 21.5928819444445  20.0769230769231 21.875  C 20.0769230769231 22.1571180555555  20.1872996794873 22.4012586805555  20.4080528846155 22.607421875  C 20.6288060897436 22.8135850694445  20.8902243589744 22.9166666666667  21.1923076923076 22.9166666666667  C 21.4943910256411 22.9166666666667  21.7558092948718 22.8135850694445  21.9765625 22.607421875  Z M 26.4381009615386 22.607421875  C 26.6588541666667 22.4012586805555  26.7692307692307 22.1571180555555  26.7692307692307 21.875  C 26.7692307692307 21.5928819444445  26.6588541666667 21.3487413194445  26.4381009615386 21.142578125  C 26.2173477564102 20.9364149305555  25.9559294871794 20.8333333333333  25.6538461538462 20.8333333333333  C 25.3517628205129 20.8333333333333  25.090344551282 20.9364149305555  24.8695913461538 21.142578125  C 24.6488381410256 21.3487413194445  24.5384615384614 21.5928819444445  24.5384615384614 21.875  C 24.5384615384614 22.1571180555555  24.6488381410256 22.4012586805555  24.8695913461538 22.607421875  C 25.090344551282 22.8135850694445  25.3517628205129 22.9166666666667  25.6538461538462 22.9166666666667  C 25.9559294871794 22.9166666666667  26.2173477564102 22.8135850694445  26.4381009615386 22.607421875  Z M 28.5120192307693 17.1223958333333  C 28.8373397435898 17.4262152777778  29 17.7951388888889  29 18.2291666666667  L 29 23.4375  C 29 23.8715277777778  28.8373397435898 24.2404513888889  28.5120192307693 24.5442708333333  C 28.1866987179487 24.8480902777778  27.7916666666667 25  27.3269230769231 25  L 1.67307692307691 25  C 1.20833333333326 25  0.81330128205127 24.8480902777778  0.487980769230717 24.5442708333333  C 0.162660256410163 24.2404513888889  0 23.8715277777778  0 23.4375  L 0 18.2291666666667  C 0 17.7951388888889  0.162660256410163 17.4262152777778  0.487980769230717 17.1223958333333  C 0.81330128205127 16.8185763888889  1.20833333333326 16.6666666666667  1.67307692307691 16.6666666666667  L 9.77704326923072 16.6666666666667  L 12.1298076923076 18.8802083333333  C 12.8036858974358 19.4878472222222  13.59375 19.7916666666667  14.5 19.7916666666667  C 15.40625 19.7916666666667  16.1963141025642 19.4878472222222  16.8701923076924 18.8802083333333  L 19.2403846153845 16.6666666666667  L 27.3269230769231 16.6666666666667  C 27.7916666666667 16.6666666666667  28.1866987179487 16.8185763888889  28.5120192307693 17.1223958333333  Z M 22.3076923076924 8.33333333333331  C 22.7956730769231 8.33333333333331  23.1384214743589 8.544921875  23.3359375 8.96809895833331  C 23.5334535256411 9.41297743055554  23.4521233974358 9.79275173611114  23.0919471153845 10.107421875  L 15.2842548076924 17.3990885416667  C 15.0751201923076 17.6052517361111  14.8137019230769 17.7083333333333  14.5 17.7083333333333  C 14.1862980769231 17.7083333333333  13.9248798076924 17.6052517361111  13.7157451923076 17.3990885416667  L 5.90805288461547 10.107421875  C 5.5478766025642 9.79275173611114  5.46654647435889 9.41297743055554  5.6640625 8.96809895833331  C 5.86157852564111 8.544921875  6.20432692307691 8.33333333333331  6.69230769230762 8.33333333333331  L 11.1538461538462 8.33333333333331  L 11.1538461538462 1.04166666666669  C 11.1538461538462 0.759548611111143  11.2642227564102 0.515407986111143  11.4849759615386 0.309244791666686  C 11.7057291666667 0.103081597222172  11.9671474358975 0  12.2692307692307 0  L 16.7307692307693 0  C 17.0328525641025 0  17.2942708333333 0.103081597222172  17.5150240384614 0.309244791666686  C 17.7357772435898 0.515407986111143  17.8461538461538 0.759548611111143  17.8461538461538 1.04166666666669  L 17.8461538461538 8.33333333333331  L 22.3076923076924 8.33333333333331  Z " fill-rule="nonzero" fill="#000000" stroke="none" transform="matrix(1 0 0 1 1482 313 )" />
  </g>
</svg>