<?xml version="1.0" encoding="utf-8"?>
<svg version="1.1" xmlns:xlink="http://www.w3.org/1999/xlink" width="5px" height="12px" xmlns="http://www.w3.org/2000/svg">
  <g transform="matrix(1 0 0 1 -321 -495 )">
    <path d="M 4.87538270415473 5.69645355411626  L 0.641708590512849 0.232617528208607  C 0.507306232448741 0.0591624094994359  0.305702713727896 0.0591624094994359  0.171300355663789 0.232617528208607  C 0.0368979975996808 0.406072646917778  0.0368979975996808 0.666255301267029  0.171300355663789 0.8397104199762  L 4.16977035188108 6  L 0.171300355663789 11.1602895800238  C 0.0368979975996808 11.333744698733  0.0368979975996808 11.5939273530822  0.171300355663789 11.7673824717914  C 0.238501534695843 11.854110031146  0.339303294056208 11.897473798966  0.406504473088376 11.897473798966  C 0.473705652120316 11.897473798966  0.574507411480909 11.854110031146  0.641708590512849 11.7673824717914  L 4.87538270415473 6.30354644588374  C 5.00978506221884 6.13009132717457  5.00978506221884 5.86990867282543  4.87538270415473 5.69645355411626  Z " fill-rule="nonzero" fill="#40a9ff" stroke="none" transform="matrix(1 0 0 1 321 495 )" />
  </g>
</svg>