<?xml version="1.0" encoding="utf-8"?>
<svg version="1.1" xmlns:xlink="http://www.w3.org/1999/xlink" width="113px" height="24px" xmlns="http://www.w3.org/2000/svg">
  <g transform="matrix(1 0 0 1 -1098 -488 )">
    <path d="M 1099 492  A 3 3 0 0 1 1102 489 L 1207 489  A 3 3 0 0 1 1210 492 L 1210 508  A 3 3 0 0 1 1207 511 L 1102 511  A 3 3 0 0 1 1099 508 L 1099 492  Z " fill-rule="nonzero" fill="#ffffff" stroke="none" />
    <path d="M 1098.5 492  A 3.5 3.5 0 0 1 1102 488.5 L 1207 488.5  A 3.5 3.5 0 0 1 1210.5 492 L 1210.5 508  A 3.5 3.5 0 0 1 1207 511.5 L 1102 511.5  A 3.5 3.5 0 0 1 1098.5 508 L 1098.5 492  Z " stroke-width="1" stroke="#000000" fill="none" stroke-opacity="0.149019607843137" />
  </g>
</svg>