<?xml version="1.0" encoding="utf-8"?>
<svg version="1.1" xmlns:xlink="http://www.w3.org/1999/xlink" width="15px" height="14px" xmlns="http://www.w3.org/2000/svg">
  <g transform="matrix(1 0 0 1 -1121 -68 )">
    <path d="M 9.19921875 8.5859375  C 9.98948317307691 7.84835737179489  10.3846153846152 6.96073717948717  10.3846153846152 5.92307692307692  C 10.3846153846152 4.88541666666664  9.98948317307691 3.99779647435896  9.19921875 3.26021634615385  C 8.40895432692309 2.52263621794874  7.45793269230762 2.15384615384615  6.34615384615381 2.15384615384615  C 5.234375 2.15384615384615  4.28335336538476 2.52263621794874  3.49308894230762 3.26021634615385  C 2.70282451923072 3.99779647435896  2.30769230769238 4.88541666666664  2.30769230769238 5.92307692307692  C 2.30769230769238 6.96073717948717  2.70282451923072 7.84835737179489  3.49308894230762 8.5859375  C 4.28335336538476 9.32351762820511  5.234375 9.69230769230769  6.34615384615381 9.69230769230769  C 7.45793269230762 9.69230769230769  8.40895432692309 9.32351762820511  9.19921875 8.5859375  Z M 14.6664663461538 12.1658653846154  C 14.8888221153848 12.3733974358974  15 12.6258012820513  15 12.9230769230769  C 15 13.2147435897436  14.8858173076924 13.4671474358974  14.6574519230769 13.6802884615385  C 14.4290865384614 13.8934294871795  14.1586538461538 14  13.8461538461538 14  C 13.5216346153848 14  13.2512019230769 13.8934294871795  13.0348557692307 13.6802884615385  L 9.94290865384619 10.8028846153846  C 8.8671875 11.4983974358974  7.66826923076928 11.8461538461538  6.34615384615381 11.8461538461538  C 5.48677884615381 11.8461538461538  4.66496394230762 11.6905048076923  3.88070913461524 11.3792067307692  C 3.09645432692309 11.0679086538462  2.42037259615381 10.6472355769231  1.85246394230762 10.1171875  C 1.28455528846143 9.58713942307689  0.833834134615245 8.95612980769231  0.500300480769283 8.22415865384615  C 0.166766826923094 7.4921875  0 6.72516025641021  0 5.92307692307692  C 0 5.12099358974363  0.166766826923094 4.35396634615385  0.500300480769283 3.62199519230769  C 0.833834134615245 2.89002403846154  1.28455528846143 2.25901442307692  1.85246394230762 1.72896634615385  C 2.42037259615381 1.19891826923077  3.09645432692309 0.778245192307693  3.88070913461524 0.466947115384613  C 4.66496394230762 0.15564903846154  5.48677884615381 0  6.34615384615381 0  C 7.20552884615381 0  8.02734375 0.15564903846154  8.81159855769238 0.466947115384613  C 9.59585336538476 0.778245192307693  10.2719350961538 1.19891826923077  10.83984375 1.72896634615385  C 11.4077524038462 2.25901442307692  11.8584735576924 2.89002403846154  12.1920072115386 3.62199519230769  C 12.5255408653848 4.35396634615385  12.6923076923076 5.12099358974363  12.6923076923076 5.92307692307692  C 12.6923076923076 7.15705128205126  12.3197115384614 8.27604166666664  11.5745192307693 9.28004807692311  L 14.6664663461538 12.1658653846154  Z " fill-rule="nonzero" fill="#ffffff" stroke="none" transform="matrix(1 0 0 1 1121 68 )" />
  </g>
</svg>