<?xml version="1.0" encoding="utf-8"?>
<svg version="1.1" xmlns:xlink="http://www.w3.org/1999/xlink" width="61px" height="25px" xmlns="http://www.w3.org/2000/svg">
  <g transform="matrix(1 0 0 1 -621 -225 )">
    <path d="M 621.5 229  A 3.5 3.5 0 0 1 625 225.5 L 678 225.5  A 3.5 3.5 0 0 1 681.5 229 L 681.5 246  A 3.5 3.5 0 0 1 678 249.5 L 625 249.5  A 3.5 3.5 0 0 1 621.5 246 L 621.5 229  Z " fill-rule="nonzero" fill="#ffffff" stroke="none" />
    <path d="M 621.5 229  A 3.5 3.5 0 0 1 625 225.5 L 678 225.5  A 3.5 3.5 0 0 1 681.5 229 L 681.5 246  A 3.5 3.5 0 0 1 678 249.5 L 625 249.5  A 3.5 3.5 0 0 1 621.5 246 L 621.5 229  Z " stroke-width="1" stroke="#3894df" fill="none" />
  </g>
</svg>