<?xml version="1.0" encoding="utf-8"?>
<svg version="1.1" xmlns:xlink="http://www.w3.org/1999/xlink" width="387px" height="40px" xmlns="http://www.w3.org/2000/svg">
  <defs>
    <mask fill="white" id="clip33">
      <path d="M 27.4087758613698 40  L 0 40  L 0 0  L 36.942263280147 0  L 387 0  L 387 40  L 27.4087758613698 40  Z " fill-rule="evenodd" />
    </mask>
  </defs>
  <g transform="matrix(1 0 0 1 -933 -584 )">
    <path d="M 27.4087758613698 40  L 0 40  L 0 0  L 36.942263280147 0  L 387 0  L 387 40  L 27.4087758613698 40  Z " fill-rule="nonzero" fill="#ffffff" stroke="none" transform="matrix(1 0 0 1 933 584 )" />
    <path d="M 27.4087758613698 40  L 0 40  L 0 0  L 36.942263280147 0  L 387 0  L 387 40  L 27.4087758613698 40  Z " stroke-width="2" stroke="#bcbcbc" fill="none" transform="matrix(1 0 0 1 933 584 )" mask="url(#clip33)" />
  </g>
</svg>