<?xml version="1.0" encoding="utf-8"?>
<svg version="1.1" xmlns:xlink="http://www.w3.org/1999/xlink" width="146px" height="40px" xmlns="http://www.w3.org/2000/svg">
  <defs>
    <mask fill="white" id="clip31">
      <path d="M 10.3402616944703 40  L 0 40  L 0 0  L 13.9368745191253 0  L 146 0  L 146 40  L 10.3402616944703 40  Z " fill-rule="evenodd" />
    </mask>
  </defs>
  <g transform="matrix(1 0 0 1 -21 -584 )">
    <path d="M 10.3402616944703 40  L 0 40  L 0 0  L 13.9368745191253 0  L 146 0  L 146 40  L 10.3402616944703 40  Z " fill-rule="nonzero" fill="#ffffff" stroke="none" transform="matrix(1 0 0 1 21 584 )" />
    <path d="M 10.3402616944703 40  L 0 40  L 0 0  L 13.9368745191253 0  L 146 0  L 146 40  L 10.3402616944703 40  Z " stroke-width="2" stroke="#bcbcbc" fill="none" transform="matrix(1 0 0 1 21 584 )" mask="url(#clip31)" />
  </g>
</svg>