<?xml version="1.0" encoding="utf-8"?>
<svg version="1.1" xmlns:xlink="http://www.w3.org/1999/xlink" width="1299px" height="40px" xmlns="http://www.w3.org/2000/svg">
  <defs>
    <mask fill="white" id="clip30">
      <path d="M 91.9999995966909 40  L 0 40  L 0 0  L 124.000000002354 0  L 956.599999998937 0  L 1299 0  L 1299 40  L 91.9999995966909 40  Z " fill-rule="evenodd" />
    </mask>
  </defs>
  <g transform="matrix(1 0 0 1 -21 -545 )">
    <path d="M 91.9999995966909 40  L 0 40  L 0 0  L 124.000000002354 0  L 956.599999998937 0  L 1299 0  L 1299 40  L 91.9999995966909 40  Z " fill-rule="nonzero" fill="#ffffff" stroke="none" transform="matrix(1 0 0 1 21 545 )" />
    <path d="M 91.9999995966909 40  L 0 40  L 0 0  L 124.000000002354 0  L 956.599999998937 0  L 1299 0  L 1299 40  L 91.9999995966909 40  Z " stroke-width="2" stroke="#bcbcbc" fill="none" transform="matrix(1 0 0 1 21 545 )" mask="url(#clip30)" />
  </g>
</svg>