<?xml version="1.0" encoding="utf-8"?>
<svg version="1.1" xmlns:xlink="http://www.w3.org/1999/xlink" width="623px" height="40px" xmlns="http://www.w3.org/2000/svg">
  <defs>
    <mask fill="white" id="clip32">
      <path d="M 44.1231714770888 40  L 0 40  L 0 0  L 59.4703618179112 0  L 183.000000251882 0  L 623 0  L 623 40  L 149.000000582359 40  L 44.1231714770888 40  Z " fill-rule="evenodd" />
    </mask>
  </defs>
  <g transform="matrix(1 0 0 1 -166 -584 )">
    <path d="M 44.1231714770888 40  L 0 40  L 0 0  L 59.4703618179112 0  L 183.000000251882 0  L 623 0  L 623 40  L 149.000000582359 40  L 44.1231714770888 40  Z " fill-rule="nonzero" fill="#ffffff" stroke="none" transform="matrix(1 0 0 1 166 584 )" />
    <path d="M 44.1231714770888 40  L 0 40  L 0 0  L 59.4703618179112 0  L 183.000000251882 0  L 623 0  L 623 40  L 149.000000582359 40  L 44.1231714770888 40  Z " stroke-width="2" stroke="#bcbcbc" fill="none" transform="matrix(1 0 0 1 166 584 )" mask="url(#clip32)" />
  </g>
</svg>