<?xml version="1.0" encoding="utf-8"?>
<svg version="1.1" xmlns:xlink="http://www.w3.org/1999/xlink" width="5px" height="11px" xmlns="http://www.w3.org/2000/svg">
  <g transform="matrix(1 0 0 1 -238 -234 )">
    <path d="M 4.87538270415473 5.22174909127324  L 0.641708590512849 0.213232734191251  C 0.507306232448741 0.0542322087078446  0.305702713727896 0.0542322087078446  0.171300355663789 0.213232734191251  C 0.0368979975996808 0.372233259674658  0.0368979975996808 0.610734026161424  0.171300355663789 0.769734551644831  L 4.16977035188108 5.5  L 0.171300355663789 10.2302654483552  C 0.0368979975996808 10.3892659738386  0.0368979975996808 10.6277667403253  0.171300355663789 10.7867672658087  C 0.238501534695843 10.8662675285505  0.339303294056208 10.9060176490521  0.406504473088262 10.9060176490521  C 0.473705652120429 10.9060176490521  0.574507411480795 10.8662675285505  0.641708590512849 10.7867672658087  L 4.87538270415473 5.77825090872676  C 5.00978506221884 5.61925038324335  5.00978506221884 5.38074961675665  4.87538270415473 5.22174909127324  Z " fill-rule="nonzero" fill="#000000" stroke="none" fill-opacity="0.647058823529412" transform="matrix(1 0 0 1 238 234 )" />
  </g>
</svg>