<?xml version="1.0" encoding="utf-8"?>
<svg version="1.1" xmlns:xlink="http://www.w3.org/1999/xlink" width="65px" height="25px" xmlns="http://www.w3.org/2000/svg">
  <g transform="matrix(1 0 0 1 -642 -225 )">
    <path d="M 643 229  A 3 3 0 0 1 646 226 L 703 226  A 3 3 0 0 1 706 229 L 706 246  A 3 3 0 0 1 703 249 L 646 249  A 3 3 0 0 1 643 246 L 643 229  Z " fill-rule="nonzero" fill="#ffffff" stroke="none" />
    <path d="M 642.5 229  A 3.5 3.5 0 0 1 646 225.5 L 703 225.5  A 3.5 3.5 0 0 1 706.5 229 L 706.5 246  A 3.5 3.5 0 0 1 703 249.5 L 646 249.5  A 3.5 3.5 0 0 1 642.5 246 L 642.5 229  Z " stroke-width="1" stroke="#000000" fill="none" stroke-opacity="0.149019607843137" />
  </g>
</svg>