<?xml version="1.0" encoding="utf-8"?>
<svg version="1.1" xmlns:xlink="http://www.w3.org/1999/xlink" width="15px" height="16px" xmlns="http://www.w3.org/2000/svg">
  <g transform="matrix(1 0 0 1 -1183 -65 )">
    <path d="M 9.19921875 9.8125  C 9.98948317307691 8.9695512820513  10.3846153846152 7.95512820512819  10.3846153846152 6.76923076923076  C 10.3846153846152 5.5833333333333  9.98948317307691 4.56891025641023  9.19921875 3.72596153846153  C 8.40895432692309 2.88301282051285  7.45793269230762 2.46153846153847  6.34615384615381 2.46153846153847  C 5.234375 2.46153846153847  4.28335336538476 2.88301282051285  3.49308894230762 3.72596153846153  C 2.70282451923072 4.56891025641023  2.30769230769238 5.5833333333333  2.30769230769238 6.76923076923076  C 2.30769230769238 7.95512820512819  2.70282451923072 8.9695512820513  3.49308894230762 9.8125  C 4.28335336538476 10.6554487179487  5.234375 11.0769230769231  6.34615384615381 11.0769230769231  C 7.45793269230762 11.0769230769231  8.40895432692309 10.6554487179487  9.19921875 9.8125  Z M 14.6664663461538 13.9038461538462  C 14.8888221153848 14.1410256410256  15 14.4294871794872  15 14.7692307692307  C 15 15.1025641025642  14.8858173076924 15.3910256410256  14.6574519230769 15.6346153846154  C 14.4290865384614 15.8782051282052  14.1586538461538 16  13.8461538461538 16  C 13.5216346153848 16  13.2512019230769 15.8782051282052  13.0348557692307 15.6346153846154  L 9.94290865384619 12.3461538461538  C 8.8671875 13.1410256410256  7.66826923076928 13.5384615384615  6.34615384615381 13.5384615384615  C 5.48677884615381 13.5384615384615  4.66496394230762 13.3605769230769  3.88070913461524 13.0048076923077  C 3.09645432692309 12.6490384615385  2.42037259615381 12.1682692307693  1.85246394230762 11.5625  C 1.28455528846143 10.9567307692307  0.833834134615245 10.2355769230769  0.500300480769283 9.39903846153847  C 0.166766826923094 8.5625  0 7.68589743589739  0 6.76923076923076  C 0 5.85256410256416  0.166766826923094 4.97596153846153  0.500300480769283 4.13942307692308  C 0.833834134615245 3.30288461538461  1.28455528846143 2.58173076923076  1.85246394230762 1.97596153846153  C 2.42037259615381 1.37019230769231  3.09645432692309 0.88942307692308  3.88070913461524 0.53365384615384  C 4.66496394230762 0.177884615384613  5.48677884615381 0  6.34615384615381 0  C 7.20552884615381 0  8.02734375 0.177884615384613  8.81159855769238 0.53365384615384  C 9.59585336538476 0.88942307692308  10.2719350961538 1.37019230769231  10.83984375 1.97596153846153  C 11.4077524038462 2.58173076923076  11.8584735576924 3.30288461538461  12.1920072115386 4.13942307692308  C 12.5255408653848 4.97596153846153  12.6923076923076 5.85256410256416  12.6923076923076 6.76923076923076  C 12.6923076923076 8.17948717948715  12.3197115384614 9.4583333333333  11.5745192307693 10.6057692307693  L 14.6664663461538 13.9038461538462  Z " fill-rule="nonzero" fill="#ffffff" stroke="none" transform="matrix(1 0 0 1 1183 65 )" />
  </g>
</svg>