<?xml version="1.0" encoding="utf-8"?>
<svg version="1.1" xmlns:xlink="http://www.w3.org/1999/xlink" width="12px" height="12px" viewBox="72 224  12 12" xmlns="http://www.w3.org/2000/svg">
  <path d="M 78 224  C 81.36 224  84 226.64  84 230  C 84 233.36  81.36 236  78 236  C 74.64 236  72 233.36  72 230  C 72 226.64  74.64 224  78 224  Z " fill-rule="nonzero" fill="#ffffff" stroke="none" />
  <path d="M 78 224.5  C 81.08 224.5  83.5 226.92  83.5 230  C 83.5 233.08  81.08 235.5  78 235.5  C 74.92 235.5  72.5 233.08  72.5 230  C 72.5 226.92  74.92 224.5  78 224.5  Z " stroke-width="1" stroke="#797979" fill="none" />
  <path d="M 78 233  C 76.32 233  75 231.68  75 230  C 75 228.32  76.32 227  78 227  C 79.68 227  81 228.32  81 230  C 81 231.68  79.68 233  78 233  " fill-rule="nonzero" fill="#797979" stroke="none" />
</svg>