<?xml version="1.0" encoding="utf-8"?>
<svg version="1.1" xmlns:xlink="http://www.w3.org/1999/xlink" width="12px" height="12px" viewBox="72 194  12 12" xmlns="http://www.w3.org/2000/svg">
  <path d="M 78 194  C 81.36 194  84 196.64  84 200  C 84 203.36  81.36 206  78 206  C 74.64 206  72 203.36  72 200  C 72 196.64  74.64 194  78 194  Z " fill-rule="nonzero" fill="#f0f0f0" stroke="none" />
  <path d="M 78 194.5  C 81.08 194.5  83.5 196.92  83.5 200  C 83.5 203.08  81.08 205.5  78 205.5  C 74.92 205.5  72.5 203.08  72.5 200  C 72.5 196.92  74.92 194.5  78 194.5  Z " stroke-width="1" stroke="#797979" fill="none" />
  <path d="M 78 203  C 76.32 203  75 201.68  75 200  C 75 198.32  76.32 197  78 197  C 79.68 197  81 198.32  81 200  C 81 201.68  79.68 203  78 203  " fill-rule="nonzero" fill="#797979" stroke="none" />
</svg>