<?xml version="1.0" encoding="utf-8"?>
<svg version="1.1" xmlns:xlink="http://www.w3.org/1999/xlink" width="12px" height="12px" viewBox="72 255  12 12" xmlns="http://www.w3.org/2000/svg">
  <path d="M 78 255  C 81.36 255  84 257.64  84 261  C 84 264.36  81.36 267  78 267  C 74.64 267  72 264.36  72 261  C 72 257.64  74.64 255  78 255  Z " fill-rule="nonzero" fill="#ffffff" stroke="none" />
  <path d="M 78 255.5  C 81.08 255.5  83.5 257.92  83.5 261  C 83.5 264.08  81.08 266.5  78 266.5  C 74.92 266.5  72.5 264.08  72.5 261  C 72.5 257.92  74.92 255.5  78 255.5  Z " stroke-width="1" stroke="#797979" fill="none" />
  <path d="M 78 264  C 76.32 264  75 262.68  75 261  C 75 259.32  76.32 258  78 258  C 79.68 258  81 259.32  81 261  C 81 262.68  79.68 264  78 264  " fill-rule="nonzero" fill="#797979" stroke="none" />
</svg>