<?xml version="1.0" encoding="utf-8"?>
<svg version="1.1" xmlns:xlink="http://www.w3.org/1999/xlink" width="12px" height="12px" viewBox="72 286  12 12" xmlns="http://www.w3.org/2000/svg">
  <path d="M 78 286  C 81.36 286  84 288.64  84 292  C 84 295.36  81.36 298  78 298  C 74.64 298  72 295.36  72 292  C 72 288.64  74.64 286  78 286  Z " fill-rule="nonzero" fill="#f0f0f0" stroke="none" />
  <path d="M 78 286.5  C 81.08 286.5  83.5 288.92  83.5 292  C 83.5 295.08  81.08 297.5  78 297.5  C 74.92 297.5  72.5 295.08  72.5 292  C 72.5 288.92  74.92 286.5  78 286.5  Z " stroke-width="1" stroke="#797979" fill="none" />
  <path d="M 78 295  C 76.32 295  75 293.68  75 292  C 75 290.32  76.32 289  78 289  C 79.68 289  81 290.32  81 292  C 81 293.68  79.68 295  78 295  " fill-rule="nonzero" fill="#797979" stroke="none" />
</svg>