<?xml version="1.0" encoding="utf-8"?>
<svg version="1.1" xmlns:xlink="http://www.w3.org/1999/xlink" width="12px" height="12px" viewBox="80 230  12 12" xmlns="http://www.w3.org/2000/svg">
  <path d="M 86 230  C 89.36 230  92 232.64  92 236  C 92 239.36  89.36 242  86 242  C 82.64 242  80 239.36  80 236  C 80 232.64  82.64 230  86 230  Z " fill-rule="nonzero" fill="#f0f0f0" stroke="none" />
  <path d="M 86 230.5  C 89.08 230.5  91.5 232.92  91.5 236  C 91.5 239.08  89.08 241.5  86 241.5  C 82.92 241.5  80.5 239.08  80.5 236  C 80.5 232.92  82.92 230.5  86 230.5  Z " stroke-width="1" stroke="#797979" fill="none" />
  <path d="M 86 239  C 84.32 239  83 237.68  83 236  C 83 234.32  84.32 233  86 233  C 87.68 233  89 234.32  89 236  C 89 237.68  87.68 239  86 239  " fill-rule="nonzero" fill="#797979" stroke="none" />
</svg>