<?xml version="1.0" encoding="utf-8"?>
<svg version="1.1" xmlns:xlink="http://www.w3.org/1999/xlink" width="88px" height="35px" xmlns="http://www.w3.org/2000/svg">
  <g transform="matrix(1 0 0 1 -11 -70 )">
    <path d="M 84 35  L 4 35  C 1.76 35  0 32.8  0 30  L 0 5  C 0 2.19999999999999  1.76 0  4 0  L 84 0  C 86.24 0  88 2.19999999999999  88 5  L 88 30  C 88 32.8  86.24 35  84 35  Z M 26.7613636363636 15.7528409090909  C 26.6022727272727 15.5539772727273  26.4090909090909 15.4545454545455  26.1818181818182 15.4545454545455  L 22.6363636363636 15.4545454545455  L 22.6363636363636 11.0227272727273  C 22.6363636363636 10.7386363636364  22.5568181818182 10.4971590909091  22.3977272727273 10.2982954545455  C 22.2386363636364 10.0994318181818  22.0454545454546 10  21.8181818181818 10  L 20.1818181818182 10  C 19.9545454545455 10  19.7613636363636 10.0994318181818  19.6022727272727 10.2982954545455  C 19.4431818181818 10.4971590909091  19.3636363636364 10.7386363636364  19.3636363636364 11.0227272727273  L 19.3636363636364 15.4545454545455  L 15.8181818181818 15.4545454545455  C 15.5909090909091 15.4545454545455  15.3977272727273 15.5539772727273  15.2386363636364 15.7528409090909  C 15.0795454545455 15.9517045454545  15 16.1931818181818  15 16.4772727272727  L 15 18.5227272727273  C 15 18.8068181818182  15.0795454545455 19.0482954545455  15.2386363636364 19.2471590909091  C 15.3977272727273 19.4460227272727  15.5909090909091 19.5454545454545  15.8181818181818 19.5454545454545  L 19.3636363636364 19.5454545454545  L 19.3636363636364 23.9772727272727  C 19.3636363636364 24.2613636363636  19.4431818181818 24.5028409090909  19.6022727272727 24.7017045454545  C 19.7613636363636 24.9005681818182  19.9545454545455 25  20.1818181818182 25  L 21.8181818181818 25  C 22.0454545454546 25  22.2386363636364 24.9005681818182  22.3977272727273 24.7017045454545  C 22.5568181818182 24.5028409090909  22.6363636363636 24.2613636363636  22.6363636363636 23.9772727272727  L 22.6363636363636 19.5454545454545  L 26.1818181818182 19.5454545454545  C 26.4090909090909 19.5454545454545  26.6022727272727 19.4460227272727  26.7613636363636 19.2471590909091  C 26.9204545454545 19.0482954545455  27 18.8068181818182  27 18.5227272727273  L 27 16.4772727272727  C 27 16.1931818181818  26.9204545454545 15.9517045454545  26.7613636363636 15.7528409090909  Z " fill-rule="nonzero" fill="#dd6161" stroke="none" transform="matrix(1 0 0 1 11 70 )" />
  </g>
</svg>