<?xml version="1.0" encoding="utf-8"?>
<svg version="1.1" xmlns:xlink="http://www.w3.org/1999/xlink" width="12px" height="12px" viewBox="190 292  12 12" xmlns="http://www.w3.org/2000/svg">
  <path d="M 196 292  C 199.36 292  202 294.64  202 298  C 202 301.36  199.36 304  196 304  C 192.64 304  190 301.36  190 298  C 190 294.64  192.64 292  196 292  Z " fill-rule="nonzero" fill="#f0f0f0" stroke="none" />
  <path d="M 196 292.5  C 199.08 292.5  201.5 294.92  201.5 298  C 201.5 301.08  199.08 303.5  196 303.5  C 192.92 303.5  190.5 301.08  190.5 298  C 190.5 294.92  192.92 292.5  196 292.5  Z " stroke-width="1" stroke="#797979" fill="none" />
  <path d="M 196 301  C 194.32 301  193 299.68  193 298  C 193 296.32  194.32 295  196 295  C 197.68 295  199 296.32  199 298  C 199 299.68  197.68 301  196 301  " fill-rule="nonzero" fill="#797979" stroke="none" />
</svg>