<?xml version="1.0" encoding="utf-8"?>
<svg version="1.1" xmlns:xlink="http://www.w3.org/1999/xlink" width="12px" height="12px" viewBox="190 262  12 12" xmlns="http://www.w3.org/2000/svg">
  <path d="M 196 262  C 199.36 262  202 264.64  202 268  C 202 271.36  199.36 274  196 274  C 192.64 274  190 271.36  190 268  C 190 264.64  192.64 262  196 262  Z " fill-rule="nonzero" fill="#ffffff" stroke="none" />
  <path d="M 196 262.5  C 199.08 262.5  201.5 264.92  201.5 268  C 201.5 271.08  199.08 273.5  196 273.5  C 192.92 273.5  190.5 271.08  190.5 268  C 190.5 264.92  192.92 262.5  196 262.5  Z " stroke-width="1" stroke="#797979" fill="none" />
  <path d="M 196 271  C 194.32 271  193 269.68  193 268  C 193 266.32  194.32 265  196 265  C 197.68 265  199 266.32  199 268  C 199 269.68  197.68 271  196 271  " fill-rule="nonzero" fill="#797979" stroke="none" />
</svg>