<?xml version="1.0" encoding="utf-8"?>
<svg version="1.1" xmlns:xlink="http://www.w3.org/1999/xlink" width="14px" height="13px" xmlns="http://www.w3.org/2000/svg">
  <g transform="matrix(1 0 0 1 -1367 -30 )">
    <path d="M 13.8597194388778 5.97515527950311  C 13.9532398129593 6.06487232574189  14 6.16804692891649  14 6.28467908902692  C 14 6.40131124913734  13.9532398129593 6.50448585231194  13.8597194388778 6.59420289855073  L 7.32264529058125 12.8654244306418  C 7.22912491649981 12.9551414768806  7.12157648630591 13  7 13  C 6.87842351369409 13  6.77087508350019 12.9551414768806  6.67735470941875 12.8654244306418  L 0.140280561122154 6.59420289855073  C 0.0467601870407179 6.50448585231194  0 6.40131124913734  0 6.28467908902692  C 0 6.16804692891649  0.0467601870407179 6.06487232574189  0.140280561122154 5.97515527950311  L 0.841683366733605 5.30227743271222  C 0.935203740815041 5.21256038647343  1.04275217100871 5.16770186335404  1.16432865731463 5.16770186335404  C 1.28590514362054 5.16770186335404  1.39345357381421 5.21256038647343  1.48697394789588 5.30227743271222  L 7 10.5910973084886  L 12.5130260521041 5.30227743271222  C 12.6065464261858 5.21256038647343  12.7140948563795 5.16770186335404  12.8356713426854 5.16770186335404  C 12.9572478289913 5.16770186335404  13.064796259185 5.21256038647343  13.1583166332666 5.30227743271222  L 13.8597194388778 5.97515527950311  Z M 13.8597194388778 0.807453416149066  C 13.9532398129593 0.897170462387855  14 1.00034506556246  14 1.11697722567288  C 14 1.2336093857833  13.9532398129593 1.3367839889579  13.8597194388778 1.42650103519669  L 7.32264529058125 7.69772256728778  C 7.22912491649981 7.78743961352657  7.12157648630591 7.83229813664597  7 7.83229813664597  C 6.87842351369409 7.83229813664597  6.77087508350019 7.78743961352657  6.67735470941875 7.69772256728778  L 0.140280561122154 1.42650103519669  C 0.0467601870407179 1.3367839889579  0 1.2336093857833  0 1.11697722567288  C 0 1.00034506556246  0.0467601870407179 0.897170462387855  0.140280561122154 0.807453416149066  L 0.841683366733605 0.134575569358176  C 0.935203740815041 0.0448585231193874  1.04275217100871 0  1.16432865731463 0  C 1.28590514362054 0  1.39345357381421 0.0448585231193874  1.48697394789588 0.134575569358176  L 7 5.42339544513457  L 12.5130260521041 0.134575569358176  C 12.6065464261858 0.0448585231193874  12.7140948563795 0  12.8356713426854 0  C 12.9572478289913 0  13.064796259185 0.0448585231193874  13.1583166332666 0.134575569358176  L 13.8597194388778 0.807453416149066  Z " fill-rule="nonzero" fill="#666666" stroke="none" transform="matrix(1 0 0 1 1367 30 )" />
  </g>
</svg>