<?xml version="1.0" encoding="utf-8"?>
<svg version="1.1" xmlns:xlink="http://www.w3.org/1999/xlink" width="20px" height="20px" xmlns="http://www.w3.org/2000/svg">
  <g transform="matrix(1 0 0 1 -1290 -105 )">
    <path d="M 18.5714285714287 13.3246073298429  C 19.5238095238096 14.1797556719022  20 15.2050610820244  20 16.4005235602094  C 20 17.4214659685864  19.6238095238095 18.2766143106457  18.8714285714286 18.9659685863875  C 18.1190476190477 19.6553228621291  17.1857142857143 20  16.0714285714287 20  C 14.7857142857142 20  13.6666666666667 19.5636998254799  12.7142857142858 18.6910994764397  L 1.61428571428564 8.5340314136125  C 0.538095238095138 7.53054101221642  0 6.34816753926708  0 4.98691099476437  C 0 3.59947643979058  0.523809523809632 2.42146596858638  1.57142857142867 1.45287958115188  C 2.61904761904771 0.484293193717264  3.90000000000009 0  5.41428571428582 0  C 6.91904761904766 0  8.21904761904761 0.493019197207644  9.31428571428569 1.47905759162305  L 17.9571428571428 9.41099476439794  C 18.0523809523809 9.49825479930186  18.0999999999999 9.59424083769628  18.0999999999999 9.69895287958116  C 18.0999999999999 9.83856893542762  17.9547619047619 10.0414485165794  17.6642857142858 10.3075916230367  C 17.3738095238095 10.5737347294939  17.152380952381 10.7068062827226  17 10.7068062827226  C 16.8761904761905 10.7068062827226  16.7666666666667 10.6631762652705  16.6714285714286 10.5759162303665  L 8.01428571428573 2.63089005235597  C 7.26190476190482 1.95898778359515  6.40000000000009 1.62303664921464  5.42857142857133 1.62303664921464  C 4.41904761904766 1.62303664921464  3.56666666666661 1.95026178010465  2.87142857142862 2.6047120418848  C 2.17619047619041 3.25916230366494  1.82857142857142 4.04886561954626  1.82857142857142 4.97382198952874  C 1.82857142857142 5.8900523560209  2.19047619047615 6.67975567190223  2.91428571428582 7.34293193717275  L 14 17.5130890052356  C 14.5999999999999 18.0628272251309  15.2904761904763 18.3376963350785  16.0714285714287 18.3376963350785  C 16.6809523809525 18.3376963350785  17.1857142857143 18.15445026178  17.5857142857142 17.7879581151832  C 17.9857142857143 17.4214659685864  18.1857142857143 16.9589877835951  18.1857142857143 16.4005235602094  C 18.1857142857143 15.6849912739964  17.8857142857144 15.0523560209423  17.2857142857142 14.5026178010471  L 8.98571428571427 6.89790575916231  C 8.73809523809518 6.68848167539272  8.45238095238096 6.58376963350784  8.12857142857138 6.58376963350784  C 7.85238095238105 6.58376963350784  7.62380952380954 6.6666666666666  7.44285714285706 6.83246073298432  C 7.26190476190482 6.99825479930186  7.17142857142858 7.20767888307154  7.17142857142858 7.4607329842932  C 7.17142857142858 7.73996509598601  7.29047619047628 7.99738219895289  7.52857142857147 8.23298429319365  L 13.3857142857144 13.5994764397906  C 13.4809523809524 13.6867364746946  13.5285714285715 13.782722513089  13.5285714285715 13.8874345549739  C 13.5285714285715 14.0270506108203  13.3809523809523 14.2321116928447  13.0857142857142 14.5026178010471  C 12.7904761904763 14.7731239092496  12.5666666666666 14.9083769633507  12.4142857142858 14.9083769633507  C 12.3 14.9083769633507  12.195238095238 14.8647469458988  12.0999999999999 14.7774869109948  L 6.24285714285725 9.41099476439794  C 5.64285714285711 8.87870855148338  5.34285714285716 8.22862129144852  5.34285714285716 7.4607329842932  C 5.34285714285716 6.74520069808023  5.61428571428564 6.13874345549738  6.15714285714284 5.64136125654449  C 6.70000000000005 5.14397905759159  7.36190476190473 4.8952879581152  8.14285714285711 4.8952879581152  C 8.98095238095243 4.8952879581152  9.69047619047615 5.17015706806288  10.2714285714285 5.71989528795811  L 18.5714285714287 13.3246073298429  Z " fill-rule="nonzero" fill="#000000" stroke="none" transform="matrix(1 0 0 1 1290 105 )" />
  </g>
</svg>