<?xml version="1.0" encoding="utf-8"?>
<svg version="1.1" xmlns:xlink="http://www.w3.org/1999/xlink" width="20px" height="20px" xmlns="http://www.w3.org/2000/svg">
  <g transform="matrix(1 0 0 1 -60 -128 )">
    <path d="M 15.5859375 11.4192708333333  C 15.7508680555556 11.2543402777778  15.8333333333333 11.0590277777778  15.8333333333333 10.8333333333333  L 15.8333333333333 9.16666666666669  C 15.8333333333333 8.94097222222223  15.7508680555556 8.74565972222223  15.5859375 8.58072916666669  C 15.4210069444445 8.41579861111114  15.2256944444445 8.33333333333331  15 8.33333333333331  L 5 8.33333333333331  C 4.77430555555557 8.33333333333331  4.57899305555557 8.41579861111114  4.4140625 8.58072916666669  C 4.24913194444443 8.74565972222223  4.16666666666666 8.94097222222223  4.16666666666666 9.16666666666669  L 4.16666666666666 10.8333333333333  C 4.16666666666666 11.0590277777778  4.24913194444443 11.2543402777778  4.4140625 11.4192708333333  C 4.57899305555557 11.5842013888889  4.77430555555557 11.6666666666667  5 11.6666666666667  L 15 11.6666666666667  C 15.2256944444445 11.6666666666667  15.4210069444445 11.5842013888889  15.5859375 11.4192708333333  Z M 18.6588541666667 4.98046875  C 19.5529513888889 6.5125868055556  20 8.18576388888886  20 10  C 20 11.8142361111111  19.5529513888889 13.4874131944444  18.6588541666667 15.01953125  C 17.7647569444445 16.5516493055556  16.5516493055556 17.7647569444444  15.01953125 18.6588541666667  C 13.4874131944445 19.5529513888889  11.8142361111111 20  10 20  C 8.18576388888889 20  6.51258680555557 19.5529513888889  4.98046875 18.6588541666667  C 3.44835069444443 17.7647569444444  2.23524305555557 16.5516493055556  1.34114583333334 15.01953125  C 0.447048611111114 13.4874131944444  0 11.8142361111111  0 10  C 0 8.18576388888886  0.447048611111114 6.5125868055556  1.34114583333334 4.98046875  C 2.23524305555557 3.4483506944444  3.44835069444443 2.23524305555554  4.98046875 1.34114583333331  C 6.51258680555557 0.447048611111143  8.18576388888889 0  10 0  C 11.8142361111111 0  13.4874131944445 0.447048611111143  15.01953125 1.34114583333331  C 16.5516493055556 2.23524305555554  17.7647569444445 3.4483506944444  18.6588541666667 4.98046875  Z " fill-rule="nonzero" fill="#ff0000" stroke="none" transform="matrix(1 0 0 1 60 128 )" />
  </g>
</svg>