<?xml version="1.0" encoding="utf-8"?>
<svg version="1.1" xmlns:xlink="http://www.w3.org/1999/xlink" width="20px" height="20px" xmlns="http://www.w3.org/2000/svg">
  <g transform="matrix(1 0 0 1 -30 -128 )">
    <path d="M 15.5859375 11.4192708333333  C 15.7508680555556 11.2543402777778  15.8333333333333 11.0590277777778  15.8333333333333 10.8333333333333  L 15.8333333333333 9.16666666666669  C 15.8333333333333 8.94097222222223  15.7508680555556 8.74565972222223  15.5859375 8.58072916666669  C 15.4210069444444 8.41579861111109  15.2256944444444 8.33333333333331  15 8.33333333333331  L 11.6666666666667 8.33333333333331  L 11.6666666666667 5  C 11.6666666666667 4.77430555555554  11.5842013888889 4.57899305555554  11.4192708333333 4.4140625  C 11.2543402777778 4.24913194444446  11.0590277777778 4.16666666666669  10.8333333333333 4.16666666666669  L 9.16666666666667 4.16666666666669  C 8.94097222222223 4.16666666666669  8.74565972222223 4.24913194444446  8.58072916666667 4.4140625  C 8.41579861111111 4.57899305555554  8.33333333333333 4.77430555555554  8.33333333333333 5  L 8.33333333333333 8.33333333333331  L 5 8.33333333333331  C 4.77430555555556 8.33333333333331  4.57899305555556 8.41579861111109  4.4140625 8.58072916666669  C 4.24913194444444 8.74565972222223  4.16666666666667 8.94097222222223  4.16666666666667 9.16666666666669  L 4.16666666666667 10.8333333333333  C 4.16666666666667 11.0590277777778  4.24913194444444 11.2543402777778  4.4140625 11.4192708333333  C 4.57899305555556 11.5842013888889  4.77430555555556 11.6666666666667  5 11.6666666666667  L 8.33333333333333 11.6666666666667  L 8.33333333333333 15  C 8.33333333333333 15.2256944444445  8.41579861111111 15.4210069444445  8.58072916666667 15.5859375  C 8.74565972222223 15.7508680555555  8.94097222222223 15.8333333333334  9.16666666666667 15.8333333333334  L 10.8333333333333 15.8333333333334  C 11.0590277777778 15.8333333333334  11.2543402777778 15.7508680555555  11.4192708333333 15.5859375  C 11.5842013888889 15.4210069444445  11.6666666666667 15.2256944444445  11.6666666666667 15  L 11.6666666666667 11.6666666666667  L 15 11.6666666666667  C 15.2256944444444 11.6666666666667  15.4210069444444 11.5842013888889  15.5859375 11.4192708333333  Z M 18.6588541666667 4.98046875  C 19.5529513888889 6.51258680555554  20 8.18576388888891  20 10  C 20 11.8142361111111  19.5529513888889 13.4874131944445  18.6588541666667 15.01953125  C 17.7647569444444 16.5516493055555  16.5516493055556 17.7647569444445  15.01953125 18.6588541666666  C 13.4874131944444 19.5529513888889  11.8142361111111 20  10 20  C 8.18576388888889 20  6.51258680555556 19.5529513888889  4.98046875 18.6588541666666  C 3.44835069444444 17.7647569444445  2.23524305555556 16.5516493055555  1.34114583333334 15.01953125  C 0.447048611111114 13.4874131944445  0 11.8142361111111  0 10  C 0 8.18576388888891  0.447048611111114 6.51258680555554  1.34114583333334 4.98046875  C 2.23524305555556 3.44835069444446  3.44835069444444 2.23524305555554  4.98046875 1.34114583333331  C 6.51258680555556 0.447048611111086  8.18576388888889 0  10 0  C 11.8142361111111 0  13.4874131944444 0.447048611111086  15.01953125 1.34114583333331  C 16.5516493055556 2.23524305555554  17.7647569444444 3.44835069444446  18.6588541666667 4.98046875  Z " fill-rule="nonzero" fill="#0079cc" stroke="none" transform="matrix(1 0 0 1 30 128 )" />
  </g>
</svg>